# xmcd
#
# Track frame offsets: 
#        150
#        14025
#        27105
#        44033
#        62528
#        83723
#        98498
#        111871
#        128881
#        143626
#        164491
#        182296
#        194416
#        210159
#        223734
#        241149
#        256022
#        272785
#        288565
#        307188
#
# Disc length: 4315 seconds
#
# Revision: 0
# Processed by: cddbd v1.5.2PL0 Copyright (c) Steve Scherf et al.
# Submitted via: ExactAudioCopy v1.3
#
DISCID=1d10d914
DTITLE=Various Artist - TSP Country and Americana Volume 177
DYEAR=2018
DGENRE=Country
TTITLE0=David McLaughlin - Find You There
TTITLE1=Diff and Dudley - Could We Fall In Love Again
TTITLE2=Jim Bohn - Treacherous Heart
TTITLE3=K A Patterson and The Paradise Band (feat. Mike and Amber)) - Thin
TTITLE3=gs We Lose
TTITLE4=John McLeod - Love Echoes
TTITLE5=Kevin Beadles - I Can't Hang With You Anymore
TTITLE6=Reagan Hudson - Honky Tonk Side
TTITLE7=Cameron Malloy - Blue Heart At Midnight
TTITLE8=Glenn Shayne (feat. SongCat) - All Tied Up
TTITLE9=Jeff Warren Johnston - El Toro
TTITLE10=John McLeod - Razor Wire
TTITLE11=Jim Flynn (vocals by Phil Coley) - Someone
TTITLE12=Jeff Warren Johnston - That Woman
TTITLE13=Vanessa Lavole (Jim Richardson Jr) - Drop The G
TTITLE14=Allan Markin - Golden Years
TTITLE15=Mike Wells - The All Blues
TTITLE16=J D Johnsson - Don't Walk Away
TTITLE17=Jack Taylor - Words In Red
TTITLE18=David Wall (George Wells) - An Old Rock 'n Roller
TTITLE19=Slim Andrews - Autumn Of Our Lives
EXTD=
EXTT0=
EXTT1=
EXTT2=
EXTT3=
EXTT4=
EXTT5=
EXTT6=
EXTT7=
EXTT8=
EXTT9=
EXTT10=
EXTT11=
EXTT12=
EXTT13=
EXTT14=
EXTT15=
EXTT16=
EXTT17=
EXTT18=
EXTT19=
PLAYORDER=
